<svg width="963" height="963" xmlns="http://www.w3.org/2000/svg">

 <g>
  <title>background</title>
  <rect fill="none" id="canvas_background" height="602" width="802" y="-1" x="-1"/>
 </g>
 <g>
  <title>Layer 1</title>
  <rect stroke="#555555" id="svg_21" height="688.00002" width="520.99996" y="128" x="217.39999" stroke-width="0" fill="#ffffff"/>
  <g stroke="#555555" fill="#000" id="svg_1">
   <path stroke-width="0" stroke="#000" fill="#555555" id="svg_2" d="m0,481.5c0,265.9 215.6,481.5 481.5,481.5c265.9,0 481.5,-215.6 481.5,-481.5c0,-265.9 -215.6,-481.5 -481.5,-481.5c-266,0 -481.5,215.6 -481.5,481.5zm691.601,61.8l-213.401,233.301c-17.8,19.399 -42.099,29.199 -66.4,29.199c-21.699,0 -43.5,-7.8 -60.699,-23.6c-36.7,-33.6 -39.2,-90.5 -5.601,-127.2l157.8,-172.399l-162.699,-177.301c-33.601,-36.6 -31.101,-93.6 5.5,-127.2c36.6,-33.6 93.6,-31.1 127.199,5.5l218.2,238.1c31.5,34.401 31.601,87.2 0.101,121.6z"/>
  </g>
  <g id="svg_3"/>
  <g id="svg_4"/>
  <g id="svg_5"/>
  <g id="svg_6"/>
  <g id="svg_7"/>
  <g id="svg_8"/>
  <g id="svg_9"/>
  <g id="svg_10"/>
  <g id="svg_11"/>
  <g id="svg_12"/>
  <g id="svg_13"/>
  <g id="svg_14"/>
  <g id="svg_15"/>
  <g id="svg_16"/>
  <g id="svg_17"/>
 </g>
</svg>