<?xml version="1.0" encoding="utf-8"?>
<svg viewBox="0 0 21 21" xmlns="http://www.w3.org/2000/svg">
  <defs>
    <style>
      .cls-1 {
        fill: none;
      }

      .cls-2 {
        fill: #1d1d1d;
      }
    </style>
  </defs>
  <g id="Group_1" data-name="Group 1" transform="translate(-397 -369)">
    <rect id="Rectangle_2" data-name="Rectangle 2" class="cls-1" width="21" height="21" transform="translate(397 369)"/>
    <g id="download_copy" data-name="download copy" transform="translate(397 369.2)">
      <path id="Path_5" data-name="Path 5" class="cls-2" d="M 20.449 13.85 C 20.232 13.65 19.945 13.542 19.649 13.55 L 19.649 13.55 C 19.044 13.555 18.554 14.045 18.549 14.65 L 18.549 18.45 L 2.349 18.45 L 2.349 14.65 C 2.344 14.045 1.854 13.555 1.249 13.55 C 0.644 13.555 0.154 14.045 0.149 14.65 L 0.149 19.55 C 0.141 19.846 0.249 20.133 0.449 20.35 C 0.666 20.55 0.953 20.658 1.249 20.65 L 19.749 20.65 C 20.354 20.645 20.844 20.155 20.849 19.55 L 20.849 14.65 C 20.8 14.349 20.66 14.07 20.449 13.85 Z" style="fill: rgb(238, 238, 238);"/>
      <path id="Path_6" data-name="Path 6" class="cls-2" d="M 9.949 15.05 L 10.149 15.25 C 10.525 15.391 10.947 15.314 11.249 15.05 L 16.149 9.85 C 16.712 9.258 16.423 8.279 15.629 8.088 C 15.279 8.003 14.91 8.102 14.649 8.35 L 11.649 11.55 L 11.649 1.15 C 11.644 0.545 11.154 0.055 10.549 0.05 C 9.911 0.013 9.368 0.511 9.349 1.15 L 9.349 11.45 L 6.449 8.25 C 6.216 8.058 5.942 7.922 5.649 7.85 C 5.387 7.862 5.138 7.968 4.949 8.15 C 4.47 8.559 4.425 9.284 4.849 9.75 Z" style="paint-order: fill; fill: rgb(238, 238, 238);"/>
    </g>
  </g>
</svg>