<?xml version="1.0" encoding="utf-8"?>
<!-- Generator: Adobe Illustrator 23.0.1, SVG Export Plug-In . SVG Version: 6.00 Build 0)  -->
<svg version="1.1" id="Layer_1" xmlns="http://www.w3.org/2000/svg" xmlns:xlink="http://www.w3.org/1999/xlink" x="0px" y="0px"
	 viewBox="0 0 49.2 49.2" style="enable-background:new 0 0 49.2 49.2;" xml:space="preserve">
<style type="text/css">
	.st0{fill:#EFEFEF;}
</style>
<g>
	<circle class="st0" cx="20.8" cy="13.6" r="1"/>
	<path class="st0" d="M24.6,0C11,0,0,11,0,24.6s11,24.6,24.6,24.6s24.6-11,24.6-24.6S38.2,0,24.6,0z M14.3,28.6
		c0,1.1-0.9,1.9-1.9,1.9s-1.9-0.9-1.9-1.9v-8.3c0-1.1,0.9-1.9,1.9-1.9s1.9,0.9,1.9,1.9V28.6z M33.7,20v1.3v11.3c0,1.1-0.9,2-2,2
		h-1.5c0,0.2,0.1,0.4,0.1,0.5v0.1v0.6v3.3c0,1.1-0.9,1.9-1.9,1.9c-1.1,0-1.9-0.9-1.9-1.9v-3.3v-0.6v-0.1c0-0.2,0-0.4,0.1-0.5H23
		c0,0.2,0.1,0.4,0.1,0.5v0.1v0.6v3.3c0,1.1-0.9,1.9-1.9,1.9s-1.9-0.9-1.9-1.9v-3.3v-0.6v-0.1c0-0.2,0-0.4,0.1-0.5h-1.5
		c-1.1,0-2-0.9-2-2V21.3V20v-1.6H16h17.8h0.1L33.7,20L33.7,20z M15.6,17.1c0-2.8,1.9-5.2,4.6-6.5l-0.4-0.5l-0.4-0.5l-0.8-1.2
		C18.5,8.3,18.5,8,18.7,8s0.4-0.1,0.4,0.1L20,9.4l0.4,0.5l0.4,0.6c1.2-0.5,2.5-0.7,3.8-0.7c1.4,0,2.7,0.3,3.8,0.7l0.4-0.6l0.4-0.5
		l0.9-1.3C30.2,8,30.4,7.9,30.5,8c0.1,0.1,0.2,0.3,0.1,0.4l-0.8,1.2l-0.4,0.5L29,10.6c2.7,1.3,4.6,3.7,4.6,6.5H15.6z M38.9,28.6
		c0,1.1-0.9,1.9-1.9,1.9c-1.1,0-1.9-0.9-1.9-1.9v-8.3c0-1.1,0.9-1.9,1.9-1.9c1.1,0,1.9,0.9,1.9,1.9V28.6z"/>
	<circle class="st0" cx="28.5" cy="13.6" r="1"/>
</g>
</svg>
