<?xml version="1.0" encoding="utf-8"?>
<!-- Generator: Adobe Illustrator 23.0.3, SVG Export Plug-In . SVG Version: 6.00 Build 0)  -->
<svg version="1.1" id="Layer_1" xmlns="http://www.w3.org/2000/svg" xmlns:xlink="http://www.w3.org/1999/xlink" x="0px" y="0px"
	 viewBox="0 0 49.3 49.2" style="enable-background:new 0 0 49.3 49.2;" xml:space="preserve">
<style type="text/css">
	.st0{fill:#EFEFEF;}
	.st1{fill:#FFFFFF;}
</style>
<g id="XMLID_1_">
	<g>
		<path class="st0" d="M24.6,0c13.6,0,24.7,11,24.7,24.6S38.2,49.2,24.6,49.2S0,38.2,0,24.6S11,0,24.6,0z"/>
	</g>
	<g>
	</g>
</g>
<g id="XMLID_16_">
	<path id="XMLID_17_" class="st1" d="M18.5,24.6c0,3.4,2.8,6.2,6.2,6.2c3.4,0,6.2-2.8,6.2-6.2c0-3.4-2.8-6.2-6.2-6.2
		C21.2,18.4,18.5,21.2,18.5,24.6z"/>
	<path id="XMLID_18_" class="st1" d="M38.8,16.5c0-0.1,0-0.2,0-0.3c-1.4-2.4-3.5-4.4-5.9-5.9c-2.5-1.5-5.4-2.2-8.3-2.2
		c-5,0-9.7,2.3-12.9,6.2c-0.1,0.1-0.1,0.2,0,0.3l4.6,8c0,0.1,0.1,0.1,0.2,0.1c0,0,0,0,0,0c0.1,0,0.2-0.1,0.2-0.2
		c0.9-3.5,4.1-6,7.8-6c0.2,0,0.5,0,0.7,0c0,0,0,0,0,0h13.2C38.7,16.6,38.8,16.5,38.8,16.5z"/>
	<path id="XMLID_19_" class="st1" d="M27.1,32.4c-0.1-0.1-0.2-0.1-0.3-0.1c-0.7,0.2-1.4,0.3-2.2,0.3c-3.1,0-6-1.8-7.3-4.6
		c0,0,0,0,0,0l-6.6-11.5c0-0.1-0.1-0.1-0.2-0.1c0,0,0,0,0,0c-0.1,0-0.2,0.1-0.2,0.1c-1.4,2.5-2.1,5.3-2.1,8.1c0,4,1.4,7.8,4,10.8
		c2.6,3,6.1,4.9,10,5.5c0,0,0,0,0,0c0.1,0,0.2-0.1,0.2-0.1l4.6-8C27.2,32.6,27.2,32.5,27.1,32.4z"/>
	<path id="XMLID_20_" class="st1" d="M39.8,18.4h-9.3c-0.1,0-0.2,0.1-0.3,0.2c0,0.1,0,0.2,0.1,0.3c1.6,1.5,2.4,3.6,2.4,5.7
		c0,1.6-0.5,3.2-1.4,4.6c0,0,0,0,0,0l-6.6,11.5c0,0.1,0,0.2,0,0.3c0,0.1,0.1,0.1,0.2,0.1c0,0,0,0,0,0c4.4,0,8.5-1.8,11.5-4.9
		c3.1-3.1,4.8-7.2,4.8-11.6c0-2.1-0.4-4.1-1.1-6C40,18.5,39.9,18.4,39.8,18.4z"/>
</g>
</svg>
